<?xml version="1.0" encoding="UTF-8" standalone="no"?>
<!DOCTYPE svg PUBLIC "-//W3C//DTD SVG 1.0//EN" "http://www.w3.org/TR/2001/PR-SVG-20010719/DTD/svg10.dtd">
<svg width="135cm" height="128cm" viewBox="466 -768 2686 2542" xmlns="http://www.w3.org/2000/svg" xmlns:xlink="http://www.w3.org/1999/xlink">
  <g>
    <rect style="fill: #ffffff" x="860.214" y="210.126" width="476.1" height="28"/>
    <rect style="fill: none; fill-opacity:0; stroke-width: 2; stroke: #000000" x="860.214" y="210.126" width="476.1" height="28"/>
    <text font-size="16" style="fill: #000000;text-anchor:middle;font-family:Fira Code;font-style:normal;font-weight:normal" x="1098.26" y="228.896">RideFormActivity</text>
    <rect style="fill: #ffffff" x="860.214" y="238.126" width="476.1" height="228"/>
    <rect style="fill: none; fill-opacity:0; stroke-width: 2; stroke: #000000" x="860.214" y="238.126" width="476.1" height="228"/>
    <text font-size="12.8" style="fill: #000000;text-anchor:start;font-family:Fira Code;font-style:normal;font-weight:normal" x="863.214" y="251.942">-fabConfirm: FloatingActionButton</text>
    <text font-size="12.8" style="fill: #000000;text-anchor:start;font-family:Fira Code;font-style:normal;font-weight:normal" x="863.214" y="267.942">-fabDelete: FloatingActionButton</text>
    <text font-size="12.8" style="fill: #000000;text-anchor:start;font-family:Fira Code;font-style:normal;font-weight:normal" x="863.214" y="283.942">-DatePreview: TextView</text>
    <text font-size="12.8" style="fill: #000000;text-anchor:start;font-family:Fira Code;font-style:normal;font-weight:normal" x="863.214" y="299.942">-SetDateButton: Button</text>
    <text font-size="12.8" style="fill: #000000;text-anchor:start;font-family:Fira Code;font-style:normal;font-weight:normal" x="863.214" y="315.942">-TimePreview: TextView</text>
    <text font-size="12.8" style="fill: #000000;text-anchor:start;font-family:Fira Code;font-style:normal;font-weight:normal" x="863.214" y="331.942">-SetTimeButton: Button</text>
    <text font-size="12.8" style="fill: #000000;text-anchor:start;font-family:Fira Code;font-style:normal;font-weight:normal" x="863.214" y="347.942">-Distance: EditText</text>
    <text font-size="12.8" style="fill: #000000;text-anchor:start;font-family:Fira Code;font-style:normal;font-weight:normal" x="863.214" y="363.942">-Speed: EditText</text>
    <text font-size="12.8" style="fill: #000000;text-anchor:start;font-family:Fira Code;font-style:normal;font-weight:normal" x="863.214" y="379.942">-RPM: EditText</text>
    <text font-size="12.8" style="fill: #000000;text-anchor:start;font-family:Fira Code;font-style:normal;font-weight:normal" x="863.214" y="395.942">-Comment: EditText</text>
    <text font-size="12.8" style="fill: #000000;text-anchor:start;font-family:Fira Code;font-style:normal;font-weight:normal" x="863.214" y="411.942">-datePickerDialog: DatePickerDialog</text>
    <text font-size="12.8" style="fill: #000000;text-anchor:start;font-family:Fira Code;font-style:normal;font-weight:normal" x="863.214" y="427.942">-timePickerDialog: TimePickerDialog</text>
    <text font-size="12.8" style="fill: #000000;text-anchor:start;font-family:Fira Code;font-style:normal;font-weight:normal" x="863.214" y="443.942">-ride: Ride</text>
    <text font-size="12.8" style="fill: #000000;text-anchor:start;font-family:Fira Code;font-style:normal;font-weight:normal" x="863.214" y="459.942">-formAction: enum = FormAction.CREATE, FormAction.EDIT</text>
    <rect style="fill: #ffffff" x="860.214" y="466.126" width="476.1" height="132"/>
    <rect style="fill: none; fill-opacity:0; stroke-width: 2; stroke: #000000" x="860.214" y="466.126" width="476.1" height="132"/>
    <text font-size="12.8" style="fill: #000000;text-anchor:start;font-family:Fira Code;font-style:normal;font-weight:normal" x="863.214" y="479.942">#onCreate(savedInstanceState:Bundle): void &lt;&lt;overrride&gt;&gt;</text>
    <text font-size="12.8" style="fill: #000000;text-anchor:start;font-family:Fira Code;font-style:normal;font-weight:normal" x="863.214" y="495.942">+onSupportNavigateUp(): boolean &lt;&lt;override&gt;&gt;</text>
    <text font-size="12.8" style="fill: #000000;text-anchor:start;font-family:Fira Code;font-style:normal;font-weight:normal" x="863.214" y="511.942">+onBackPressed(): void &lt;&lt;override&gt;&gt;</text>
    <text font-size="12.8" style="fill: #000000;text-anchor:start;font-family:Fira Code;font-style:normal;font-weight:normal" x="863.214" y="527.942">-setDistance(): void</text>
    <text font-size="12.8" style="fill: #000000;text-anchor:start;font-family:Fira Code;font-style:normal;font-weight:normal" x="863.214" y="543.942">-setSpeed(): void</text>
    <text font-size="12.8" style="fill: #000000;text-anchor:start;font-family:Fira Code;font-style:normal;font-weight:normal" x="863.214" y="559.942">-setRPM(): void</text>
    <text font-size="12.8" style="fill: #000000;text-anchor:start;font-family:Fira Code;font-style:normal;font-weight:normal" x="863.214" y="575.942">-setComment(): void</text>
    <text font-size="12.8" style="fill: #000000;text-anchor:start;font-family:Fira Code;font-style:normal;font-weight:normal" x="863.214" y="591.942">-checkIfEditTextEmpty(EditText:e,hasFocus:boolean): boolean</text>
  </g>
  <g>
    <rect style="fill: #ffffff" x="1006.81" y="-766.774" width="158.3" height="28"/>
    <rect style="fill: none; fill-opacity:0; stroke-width: 2; stroke: #000000" x="1006.81" y="-766.774" width="158.3" height="28"/>
    <text font-size="16" style="fill: #000000;text-anchor:middle;font-family:sans-serif;font-style:normal;font-weight:700" x="1085.96" y="-751.11">AppCompatActivity</text>
    <rect style="fill: #ffffff" x="1006.81" y="-738.774" width="158.3" height="8"/>
    <rect style="fill: none; fill-opacity:0; stroke-width: 2; stroke: #000000" x="1006.81" y="-738.774" width="158.3" height="8"/>
    <rect style="fill: #ffffff" x="1006.81" y="-730.774" width="158.3" height="8"/>
    <rect style="fill: none; fill-opacity:0; stroke-width: 2; stroke: #000000" x="1006.81" y="-730.774" width="158.3" height="8"/>
  </g>
  <g>
    <rect style="fill: #ffffff" x="497.386" y="-429.93" width="476.1" height="28"/>
    <rect style="fill: none; fill-opacity:0; stroke-width: 2; stroke: #000000" x="497.386" y="-429.93" width="476.1" height="28"/>
    <text font-size="16" style="fill: #000000;text-anchor:middle;font-family:Fira Code;font-style:normal;font-weight:normal" x="735.436" y="-411.16">ItemDetailActivity</text>
    <rect style="fill: #ffffff" x="497.386" y="-401.93" width="476.1" height="8"/>
    <rect style="fill: none; fill-opacity:0; stroke-width: 2; stroke: #000000" x="497.386" y="-401.93" width="476.1" height="8"/>
    <rect style="fill: #ffffff" x="497.386" y="-393.93" width="476.1" height="36"/>
    <rect style="fill: none; fill-opacity:0; stroke-width: 2; stroke: #000000" x="497.386" y="-393.93" width="476.1" height="36"/>
    <text font-size="12.8" style="fill: #000000;text-anchor:start;font-family:Fira Code;font-style:normal;font-weight:normal" x="500.386" y="-380.114">#onCreate(savedInstanceState:Bundle): void &lt;&lt;overrride&gt;&gt;</text>
    <text font-size="12.8" style="fill: #000000;text-anchor:start;font-family:Fira Code;font-style:normal;font-weight:normal" x="500.386" y="-364.114">+onOptionsItemSelected(item:MenuItem): boolean &lt;&lt;override&gt;&gt;</text>
  </g>
  <g>
    <rect style="fill: #ffffff" x="1204.61" y="-400.622" width="484" height="28"/>
    <rect style="fill: none; fill-opacity:0; stroke-width: 2; stroke: #000000" x="1204.61" y="-400.622" width="484" height="28"/>
    <text font-size="16" style="fill: #000000;text-anchor:middle;font-family:Fira Code;font-style:normal;font-weight:normal" x="1446.61" y="-381.852">ItemListActivity</text>
    <rect style="fill: #ffffff" x="1204.61" y="-372.622" width="484" height="8"/>
    <rect style="fill: none; fill-opacity:0; stroke-width: 2; stroke: #000000" x="1204.61" y="-372.622" width="484" height="8"/>
    <rect style="fill: #ffffff" x="1204.61" y="-364.622" width="484" height="52"/>
    <rect style="fill: none; fill-opacity:0; stroke-width: 2; stroke: #000000" x="1204.61" y="-364.622" width="484" height="52"/>
    <text font-size="12.8" style="fill: #000000;text-anchor:start;font-family:Fira Code;font-style:normal;font-weight:normal" x="1207.61" y="-350.806">#onCreate(savedInstanceState:Bundle): void &lt;&lt;overrride&gt;&gt;</text>
    <text font-size="12.8" style="fill: #000000;text-anchor:start;font-family:Fira Code;font-style:normal;font-weight:normal" x="1207.61" y="-334.806">+onClickFabNewRide(v:View): void</text>
    <text font-size="12.8" style="fill: #000000;text-anchor:start;font-family:Fira Code;font-style:normal;font-weight:normal" x="1207.61" y="-318.806">-setUpRecyclerView(recyclerView:@NonNull RecyclerView): void</text>
  </g>
  <g>
    <rect style="fill: #ffffff" x="2244.38" y="-662.7" width="533.25" height="28"/>
    <rect style="fill: none; fill-opacity:0; stroke-width: 2; stroke: #000000" x="2244.38" y="-662.7" width="533.25" height="28"/>
    <text font-size="16" style="fill: #000000;text-anchor:middle;font-family:sans-serif;font-style:normal;font-weight:700" x="2511" y="-647.036">RecyclerView.Adapter&lt;SimpleItemRecyclerViewAdapter.ViewHolder&gt;</text>
    <rect style="fill: #ffffff" x="2244.38" y="-634.7" width="533.25" height="8"/>
    <rect style="fill: none; fill-opacity:0; stroke-width: 2; stroke: #000000" x="2244.38" y="-634.7" width="533.25" height="8"/>
    <rect style="fill: #ffffff" x="2244.38" y="-626.7" width="533.25" height="8"/>
    <rect style="fill: none; fill-opacity:0; stroke-width: 2; stroke: #000000" x="2244.38" y="-626.7" width="533.25" height="8"/>
  </g>
  <g>
    <rect style="fill: #ffffff" x="2117.26" y="-540.784" width="587.5" height="44"/>
    <rect style="fill: none; fill-opacity:0; stroke-width: 2; stroke: #000000" x="2117.26" y="-540.784" width="587.5" height="44"/>
    <text font-size="12.8" style="fill: #000000;text-anchor:middle;font-family:monospace;font-style:normal;font-weight:normal" x="2411.01" y="-529.065">&lt;&lt;static&gt;&gt;</text>
    <text font-size="16" style="fill: #000000;text-anchor:middle;font-family:sans-serif;font-style:normal;font-weight:700" x="2411.01" y="-509.12">SimpleItemRecyclerViewAdapter</text>
    <rect style="fill: #ffffff" x="2117.26" y="-496.784" width="587.5" height="68"/>
    <rect style="fill: none; fill-opacity:0; stroke-width: 2; stroke: #000000" x="2117.26" y="-496.784" width="587.5" height="68"/>
    <text font-size="12.8" style="fill: #000000;text-anchor:start;font-family:monospace;font-style:normal;font-weight:normal" x="2120.26" y="-487.065">-mParentActicity: ItemListActivity</text>
    <text font-size="12.8" style="fill: #000000;text-anchor:start;font-family:monospace;font-style:normal;font-weight:normal" x="2120.26" y="-471.065">-mValues: List&lt;Ride&gt;</text>
    <text font-size="12.8" style="fill: #000000;text-anchor:start;font-family:monospace;font-style:normal;font-weight:normal" x="2120.26" y="-455.065">-mTwoPane: boolean</text>
    <text font-size="12.8" style="fill: #000000;text-anchor:start;font-family:monospace;font-style:normal;font-weight:normal" x="2120.26" y="-439.065">+mOnclickListener: View.OnClickListener</text>
    <rect style="fill: #ffffff" x="2117.26" y="-428.784" width="587.5" height="52"/>
    <rect style="fill: none; fill-opacity:0; stroke-width: 2; stroke: #000000" x="2117.26" y="-428.784" width="587.5" height="52"/>
    <text font-size="12.8" style="fill: #000000;text-anchor:start;font-family:monospace;font-style:normal;font-weight:normal" x="2120.26" y="-419.065">+onCreateViewHolder(parent:ViewGroup,viewType:int): ViewHolder &lt;&lt;override&gt;&gt;</text>
    <text font-size="12.8" style="fill: #000000;text-anchor:start;font-family:monospace;font-style:normal;font-weight:normal" x="2120.26" y="-403.065">+onBindViewHolder(holder:ViewHolder,position:int): void</text>
    <text font-size="12.8" style="fill: #000000;text-anchor:start;font-family:monospace;font-style:normal;font-weight:normal" x="2120.26" y="-387.065">+getItemCount(): int</text>
  </g>
  <g>
    <rect style="fill: #ffffff" x="2531.34" y="-282.13" width="207.7" height="28"/>
    <rect style="fill: none; fill-opacity:0; stroke-width: 2; stroke: #000000" x="2531.34" y="-282.13" width="207.7" height="28"/>
    <text font-size="16" style="fill: #000000;text-anchor:middle;font-family:sans-serif;font-style:normal;font-weight:700" x="2635.19" y="-266.466">RecyclerView.ViewHolder </text>
    <rect style="fill: #ffffff" x="2531.34" y="-254.13" width="207.7" height="8"/>
    <rect style="fill: none; fill-opacity:0; stroke-width: 2; stroke: #000000" x="2531.34" y="-254.13" width="207.7" height="8"/>
    <rect style="fill: #ffffff" x="2531.34" y="-246.13" width="207.7" height="8"/>
    <rect style="fill: none; fill-opacity:0; stroke-width: 2; stroke: #000000" x="2531.34" y="-246.13" width="207.7" height="8"/>
  </g>
  <g>
    <rect style="fill: #ffffff" x="2342.58" y="-154.33" width="199.6" height="28"/>
    <rect style="fill: none; fill-opacity:0; stroke-width: 2; stroke: #000000" x="2342.58" y="-154.33" width="199.6" height="28"/>
    <text font-size="16" style="fill: #000000;text-anchor:middle;font-family:Fira Code;font-style:normal;font-weight:normal" x="2442.38" y="-135.56">ViewHolder</text>
    <rect style="fill: #ffffff" x="2342.58" y="-126.33" width="199.6" height="68"/>
    <rect style="fill: none; fill-opacity:0; stroke-width: 2; stroke: #000000" x="2342.58" y="-126.33" width="199.6" height="68"/>
    <text font-size="12.8" style="fill: #000000;text-anchor:start;font-family:Fira Code;font-style:normal;font-weight:normal" x="2345.58" y="-112.514">-mIdView: TextView</text>
    <text font-size="12.8" style="fill: #000000;text-anchor:start;font-family:Fira Code;font-style:normal;font-weight:normal" x="2345.58" y="-96.514">+mContentView: TextView</text>
    <text font-size="12.8" style="fill: #000000;text-anchor:start;font-family:Fira Code;font-style:normal;font-weight:normal" x="2345.58" y="-80.514">+mTimeView: TextView</text>
    <text font-size="12.8" style="fill: #000000;text-anchor:start;font-family:Fira Code;font-style:normal;font-weight:normal" x="2345.58" y="-64.514">+mDistanceView: TextView</text>
    <rect style="fill: #ffffff" x="2342.58" y="-58.3296" width="199.6" height="8"/>
    <rect style="fill: none; fill-opacity:0; stroke-width: 2; stroke: #000000" x="2342.58" y="-58.3296" width="199.6" height="8"/>
  </g>
  <g>
    <polyline style="fill: none; fill-opacity:0; stroke-width: 2; stroke: #000000" points="2635.19,-218.888 2635.19,-188.23 2442.38,-188.23 2442.38,-155.336 "/>
    <polygon style="fill: #ffffff" points="2643.19,-218.888 2635.19,-234.888 2627.19,-218.888 "/>
    <polygon style="fill: none; fill-opacity:0; stroke-width: 2; stroke: #000000" points="2643.19,-218.888 2635.19,-234.888 2627.19,-218.888 "/>
  </g>
  <g>
    <rect style="fill: #ffffff" x="859.068" y="-70.1068" width="476.1" height="28"/>
    <rect style="fill: none; fill-opacity:0; stroke-width: 2; stroke: #000000" x="859.068" y="-70.1068" width="476.1" height="28"/>
    <text font-size="16" style="fill: #000000;text-anchor:middle;font-family:Fira Code;font-style:normal;font-weight:normal" x="1097.12" y="-51.3373">ItemDetailFragment</text>
    <rect style="fill: #ffffff" x="859.068" y="-42.1068" width="476.1" height="36"/>
    <rect style="fill: none; fill-opacity:0; stroke-width: 2; stroke: #000000" x="859.068" y="-42.1068" width="476.1" height="36"/>
    <text font-size="12.8" style="fill: #000000;text-anchor:start;font-family:Fira Code;font-style:normal;font-weight:normal" x="862.068" y="-28.2912">+ARG_ITEM_ID: String = "item_id"</text>
    <text font-size="12.8" style="fill: #000000;text-anchor:start;font-family:Fira Code;font-style:normal;font-weight:normal" x="862.068" y="-12.2912">-mItem: Ride</text>
    <rect style="fill: #ffffff" x="859.068" y="-6.1068" width="476.1" height="52"/>
    <rect style="fill: none; fill-opacity:0; stroke-width: 2; stroke: #000000" x="859.068" y="-6.1068" width="476.1" height="52"/>
    <text font-size="12.8" style="fill: #000000;text-anchor:start;font-family:Fira Code;font-style:normal;font-weight:normal" x="862.068" y="7.70883">#onCreate(savedInstanceState:Bundle): void &lt;&lt;overrride&gt;&gt;</text>
    <text font-size="12.8" style="fill: #000000;text-anchor:start;font-family:Fira Code;font-style:normal;font-weight:normal" x="862.068" y="23.7088">+onCreateView(inflater:LayoutInflater,container:ViewGroup,</text>
    <text font-size="12.8" style="fill: #000000;text-anchor:start;font-family:Fira Code;font-style:normal;font-weight:normal" x="862.068" y="39.7088">              savedInstanceState:Bundle): View &lt;&lt;override&gt;&gt;</text>
  </g>
  <g>
    <rect style="fill: #ffffff" x="1205.24" y="-174.299" width="82.55" height="28"/>
    <rect style="fill: none; fill-opacity:0; stroke-width: 2; stroke: #000000" x="1205.24" y="-174.299" width="82.55" height="28"/>
    <text font-size="16" style="fill: #000000;text-anchor:middle;font-family:sans-serif;font-style:normal;font-weight:700" x="1246.52" y="-158.635">Fragment</text>
    <rect style="fill: #ffffff" x="1205.24" y="-146.299" width="82.55" height="8"/>
    <rect style="fill: none; fill-opacity:0; stroke-width: 2; stroke: #000000" x="1205.24" y="-146.299" width="82.55" height="8"/>
    <rect style="fill: #ffffff" x="1205.24" y="-138.299" width="82.55" height="8"/>
    <rect style="fill: none; fill-opacity:0; stroke-width: 2; stroke: #000000" x="1205.24" y="-138.299" width="82.55" height="8"/>
  </g>
  <g>
    <rect style="fill: #ffffff" x="1262.86" y="1302.63" width="441.2" height="28"/>
    <rect style="fill: none; fill-opacity:0; stroke-width: 2; stroke: #000000" x="1262.86" y="1302.63" width="441.2" height="28"/>
    <text font-size="16" style="fill: #000000;text-anchor:middle;font-family:sans-serif;font-style:normal;font-weight:700" x="1483.46" y="1318.3">Ride</text>
    <rect style="fill: #ffffff" x="1262.86" y="1330.63" width="441.2" height="116"/>
    <rect style="fill: none; fill-opacity:0; stroke-width: 2; stroke: #000000" x="1262.86" y="1330.63" width="441.2" height="116"/>
    <text font-size="12.8" style="fill: #000000;text-anchor:start;font-family:monospace;font-style:normal;font-weight:normal" x="1265.86" y="1340.35">-dateFormat: DateFormat = SimpleDateFormat("yyyy-MM-dd")</text>
    <text font-size="12.8" style="fill: #000000;text-anchor:start;font-family:monospace;font-style:normal;font-weight:normal" x="1265.86" y="1356.35">-timeFormat: DateFormat = SimpleDateFormat("HH:mm")</text>
    <text font-size="12.8" style="fill: #000000;text-anchor:start;font-family:monospace;font-style:normal;font-weight:normal" x="1265.86" y="1372.35">-date: Calendar</text>
    <text font-size="12.8" style="fill: #000000;text-anchor:start;font-family:monospace;font-style:normal;font-weight:normal" x="1265.86" y="1388.35">-distance: double</text>
    <text font-size="12.8" style="fill: #000000;text-anchor:start;font-family:monospace;font-style:normal;font-weight:normal" x="1265.86" y="1404.35">-average_speed: double</text>
    <text font-size="12.8" style="fill: #000000;text-anchor:start;font-family:monospace;font-style:normal;font-weight:normal" x="1265.86" y="1420.35">-rpm: long</text>
    <text font-size="12.8" style="fill: #000000;text-anchor:start;font-family:monospace;font-style:normal;font-weight:normal" x="1265.86" y="1436.35">-id: long</text>
    <rect style="fill: #ffffff" x="1262.86" y="1446.63" width="441.2" height="308"/>
    <rect style="fill: none; fill-opacity:0; stroke-width: 2; stroke: #000000" x="1262.86" y="1446.63" width="441.2" height="308"/>
    <text font-size="12.8" style="fill: #000000;text-anchor:start;font-family:monospace;font-style:normal;font-weight:normal" x="1265.86" y="1456.35">+getDate(): String</text>
    <text font-size="12.8" style="fill: #000000;text-anchor:start;font-family:monospace;font-style:normal;font-weight:normal" x="1265.86" y="1472.35">+setDate(date:Calendar): void</text>
    <text font-size="12.8" style="fill: #000000;text-anchor:start;font-family:monospace;font-style:normal;font-weight:normal" x="1265.86" y="1488.35">+getTime(): String</text>
    <text font-size="12.8" style="fill: #000000;text-anchor:start;font-family:monospace;font-style:normal;font-weight:normal" x="1265.86" y="1504.35">+getTimeHourOfDay(): int</text>
    <text font-size="12.8" style="fill: #000000;text-anchor:start;font-family:monospace;font-style:normal;font-weight:normal" x="1265.86" y="1520.35">+getTimeMinuteOfHour(): int</text>
    <text font-size="12.8" style="fill: #000000;text-anchor:start;font-family:monospace;font-style:normal;font-weight:normal" x="1265.86" y="1536.35">+setTime(hour:int,minute:int)</text>
    <text font-size="12.8" style="fill: #000000;text-anchor:start;font-family:monospace;font-style:normal;font-weight:normal" x="1265.86" y="1552.35">+getDistance(): String</text>
    <text font-size="12.8" style="fill: #000000;text-anchor:start;font-family:monospace;font-style:normal;font-weight:normal" x="1265.86" y="1568.35">+getDistance(raw:boolean): String</text>
    <text font-size="12.8" style="fill: #000000;text-anchor:start;font-family:monospace;font-style:normal;font-weight:normal" x="1265.86" y="1584.35">+setDistance(distance:double): void</text>
    <text font-size="12.8" style="fill: #000000;text-anchor:start;font-family:monospace;font-style:normal;font-weight:normal" x="1265.86" y="1600.35">+getSpeed(): String</text>
    <text font-size="12.8" style="fill: #000000;text-anchor:start;font-family:monospace;font-style:normal;font-weight:normal" x="1265.86" y="1616.35">+getSpeed(raw:boolean): String</text>
    <text font-size="12.8" style="fill: #000000;text-anchor:start;font-family:monospace;font-style:normal;font-weight:normal" x="1265.86" y="1632.35">+setSpeed(average_speed:double): void</text>
    <text font-size="12.8" style="fill: #000000;text-anchor:start;font-family:monospace;font-style:normal;font-weight:normal" x="1265.86" y="1648.35">+getRPM(): String</text>
    <text font-size="12.8" style="fill: #000000;text-anchor:start;font-family:monospace;font-style:normal;font-weight:normal" x="1265.86" y="1664.35">+getRPM(raw:boolean): String</text>
    <text font-size="12.8" style="fill: #000000;text-anchor:start;font-family:monospace;font-style:normal;font-weight:normal" x="1265.86" y="1680.35">+setRPM(rpm:long): void</text>
    <text font-size="12.8" style="fill: #000000;text-anchor:start;font-family:monospace;font-style:normal;font-weight:normal" x="1265.86" y="1696.35">+getComment(): String</text>
    <text font-size="12.8" style="fill: #000000;text-anchor:start;font-family:monospace;font-style:normal;font-weight:normal" x="1265.86" y="1712.35">+setComment(comment:String): void</text>
    <text font-size="12.8" style="fill: #000000;text-anchor:start;font-family:monospace;font-style:normal;font-weight:normal" x="1265.86" y="1728.35">+getId(): String</text>
    <text font-size="12.8" style="fill: #000000;text-anchor:start;font-family:monospace;font-style:normal;font-weight:normal" x="1265.86" y="1744.35">+decrementId(): void &lt;&lt;static&gt;&gt;</text>
  </g>
  <g>
    <rect style="fill: #ffffff" x="1012.26" y="1213.26" width="170.9" height="28"/>
    <rect style="fill: none; fill-opacity:0; stroke-width: 2; stroke: #000000" x="1012.26" y="1213.26" width="170.9" height="28"/>
    <text font-size="16" style="fill: #000000;text-anchor:middle;font-family:sans-serif;font-style:normal;font-weight:700" x="1097.71" y="1228.92">InvalidRideException</text>
    <rect style="fill: #ffffff" x="1012.26" y="1241.26" width="170.9" height="8"/>
    <rect style="fill: none; fill-opacity:0; stroke-width: 2; stroke: #000000" x="1012.26" y="1241.26" width="170.9" height="8"/>
    <rect style="fill: #ffffff" x="1012.26" y="1249.26" width="170.9" height="8"/>
    <rect style="fill: none; fill-opacity:0; stroke-width: 2; stroke: #000000" x="1012.26" y="1249.26" width="170.9" height="8"/>
  </g>
  <g>
    <rect style="fill: #ffffff" x="858.5" y="1025.72" width="207.05" height="28"/>
    <rect style="fill: none; fill-opacity:0; stroke-width: 2; stroke: #000000" x="858.5" y="1025.72" width="207.05" height="28"/>
    <text font-size="16" style="fill: #000000;text-anchor:middle;font-family:sans-serif;font-style:normal;font-weight:700" x="962.025" y="1041.39">IllegalArgumentException</text>
    <rect style="fill: #ffffff" x="858.5" y="1053.72" width="207.05" height="8"/>
    <rect style="fill: none; fill-opacity:0; stroke-width: 2; stroke: #000000" x="858.5" y="1053.72" width="207.05" height="8"/>
    <rect style="fill: #ffffff" x="858.5" y="1061.72" width="207.05" height="8"/>
    <rect style="fill: none; fill-opacity:0; stroke-width: 2; stroke: #000000" x="858.5" y="1061.72" width="207.05" height="8"/>
  </g>
  <g>
    <polyline style="fill: none; fill-opacity:0; stroke-width: 2; stroke: #000000" points="962.025,1088.96 962.025,1149.49 1097.71,1149.49 1097.71,1212.25 "/>
    <polygon style="fill: #ffffff" points="970.025,1088.96 962.025,1072.96 954.025,1088.96 "/>
    <polygon style="fill: none; fill-opacity:0; stroke-width: 2; stroke: #000000" points="970.025,1088.96 962.025,1072.96 954.025,1088.96 "/>
  </g>
  <g>
    <rect style="fill: #ffffff" x="1126.39" y="935.228" width="371.9" height="28"/>
    <rect style="fill: none; fill-opacity:0; stroke-width: 2; stroke: #000000" x="1126.39" y="935.228" width="371.9" height="28"/>
    <text font-size="16" style="fill: #000000;text-anchor:middle;font-family:sans-serif;font-style:normal;font-weight:700" x="1312.34" y="950.892">RideData</text>
    <rect style="fill: #ffffff" x="1126.39" y="963.228" width="371.9" height="36"/>
    <rect style="fill: none; fill-opacity:0; stroke-width: 2; stroke: #000000" x="1126.39" y="963.228" width="371.9" height="36"/>
    <text font-size="12.8" style="fill: #000000;text-anchor:start;font-family:monospace;font-style:normal;font-weight:normal" x="1129.39" y="972.947">+ITEMS: ArrayList&lt;Ride&gt; &lt;&lt;static&gt;&gt;</text>
    <text font-size="12.8" style="fill: #000000;text-anchor:start;font-family:monospace;font-style:normal;font-weight:normal" x="1129.39" y="988.947">+ITEM_MAP: HashMap&lt;String, Ride&gt; &lt;&lt;static&gt;&gt;</text>
    <rect style="fill: #ffffff" x="1126.39" y="999.228" width="371.9" height="68"/>
    <rect style="fill: none; fill-opacity:0; stroke-width: 2; stroke: #000000" x="1126.39" y="999.228" width="371.9" height="68"/>
    <text font-size="12.8" style="fill: #000000;text-anchor:start;font-family:monospace;font-style:normal;font-weight:normal" x="1129.39" y="1008.95">+getITEMS(): ArrayList&lt;Ride&gt; &lt;&lt;static&gt;&gt;</text>
    <text font-size="12.8" style="fill: #000000;text-anchor:start;font-family:monospace;font-style:normal;font-weight:normal" x="1129.39" y="1024.95">+getItemMap(): HashMap&lt;String, Ride&gt; &lt;&lt;static&gt;&gt;</text>
    <text font-size="12.8" style="fill: #000000;text-anchor:start;font-family:monospace;font-style:normal;font-weight:normal" x="1129.39" y="1040.95">+addItem(item:Ride): void &lt;&lt;static&gt;&gt;</text>
    <text font-size="12.8" style="fill: #000000;text-anchor:start;font-family:monospace;font-style:normal;font-weight:normal" x="1129.39" y="1056.95">+removeItem(item:Ride): void &lt;&lt;static&gt;&gt;</text>
  </g>
  <g>
    <polygon style="fill: #ffffff" points="922.564,142.519 1336.66,142.519 1348.66,154.519 1348.66,176.519 922.564,176.519 "/>
    <polygon style="fill: none; fill-opacity:0; stroke-width: 2; stroke: #000000" points="922.564,142.519 1336.66,142.519 1348.66,154.519 1348.66,176.519 922.564,176.519 "/>
    <polyline style="fill: none; fill-opacity:0; stroke-width: 1; stroke: #000000" points="1336.66,142.519 1336.66,154.519 1348.66,154.519 "/>
    <text font-size="12.8" style="fill: #000000;text-anchor:start;font-family:monospace;font-style:normal;font-weight:normal" x="929.564" y="163.237">
      <tspan x="929.564" y="163.237">handles the creation, editing, and deletion of a ride</tspan>
    </text>
  </g>
  <g>
    <polygon style="fill: #ffffff" points="796.898,1106.25 926.098,1106.25 938.098,1118.25 938.098,1140.25 796.898,1140.25 "/>
    <polygon style="fill: none; fill-opacity:0; stroke-width: 2; stroke: #000000" points="796.898,1106.25 926.098,1106.25 938.098,1118.25 938.098,1140.25 796.898,1140.25 "/>
    <polyline style="fill: none; fill-opacity:0; stroke-width: 1; stroke: #000000" points="926.098,1106.25 926.098,1118.25 938.098,1118.25 "/>
    <text font-size="12.8" style="fill: #000000;text-anchor:start;font-family:monospace;font-style:normal;font-weight:normal" x="803.898" y="1126.97">
      <tspan x="803.898" y="1126.97">provided by java</tspan>
    </text>
  </g>
  <g>
    <polygon style="fill: #ffffff" points="1149.37,-692.224 1971.57,-692.224 1983.57,-680.224 1983.57,-658.224 1149.37,-658.224 "/>
    <polygon style="fill: none; fill-opacity:0; stroke-width: 2; stroke: #000000" points="1149.37,-692.224 1971.57,-692.224 1983.57,-680.224 1983.57,-658.224 1149.37,-658.224 "/>
    <polyline style="fill: none; fill-opacity:0; stroke-width: 1; stroke: #000000" points="1971.57,-692.224 1971.57,-680.224 1983.57,-680.224 "/>
    <text font-size="12.8" style="fill: #000000;text-anchor:start;font-family:monospace;font-style:normal;font-weight:normal" x="1156.37" y="-671.506">
      <tspan x="1156.37" y="-671.506">Fragment, RecyclerView, and AppCompatActivity are Android classes. See developer.android.com for more info</tspan>
    </text>
  </g>
  <g>
    <polyline style="fill: none; fill-opacity:0; stroke-width: 2; stroke: #000000" points="1085.96,-703.532 1085.96,-553.698 1446.61,-553.698 1446.61,-401.627 "/>
    <polygon style="fill: #ffffff" points="1093.96,-703.532 1085.96,-719.532 1077.96,-703.532 "/>
    <polygon style="fill: none; fill-opacity:0; stroke-width: 2; stroke: #000000" points="1093.96,-703.532 1085.96,-719.532 1077.96,-703.532 "/>
  </g>
  <g>
    <polyline style="fill: none; fill-opacity:0; stroke-width: 2; stroke: #000000" points="1085.96,-703.532 1085.96,-568.354 735.436,-568.354 735.436,-430.939 "/>
    <polygon style="fill: #ffffff" points="1093.96,-703.532 1085.96,-719.532 1077.96,-703.532 "/>
    <polygon style="fill: none; fill-opacity:0; stroke-width: 2; stroke: #000000" points="1093.96,-703.532 1085.96,-719.532 1077.96,-703.532 "/>
  </g>
  <g>
    <polyline style="fill: none; fill-opacity:0; stroke-width: 2; stroke: #000000" points="1203.61,-356.622 1064.91,-356.622 1064.91,-393.93 974.337,-393.93 "/>
    <text font-size="12.7998" style="fill: #000000;text-anchor:start;font-family:monospace;font-style:normal;font-weight:normal" x="1066.91" y="-380.357">transition</text>
    <text font-size="12.7998" style="fill: #000000;text-anchor:end;font-family:monospace;font-style:normal;font-weight:normal" x="1199.61" y="-361.703"/>
    <text font-size="12.7998" style="fill: #000000;text-anchor:start;font-family:monospace;font-style:normal;font-weight:normal" x="978.337" y="-399.011"/>
  </g>
  <g>
    <polyline style="fill: none; fill-opacity:0; stroke-width: 2; stroke: #000000" points="1446.61,-286.457 1446.61,-241.904 1097.12,-241.904 1097.12,-71.1059 "/>
    <polygon style="fill: #ffffff" points="1446.61,-311.628 1451.41,-297.628 1446.61,-283.628 1441.81,-297.628 "/>
    <polygon style="fill: none; fill-opacity:0; stroke-width: 2; stroke: #000000" points="1446.61,-311.628 1451.41,-297.628 1446.61,-283.628 1441.81,-297.628 "/>
    <text font-size="12.7998" style="fill: #000000;text-anchor:middle;font-family:monospace;font-style:normal;font-weight:normal" x="1271.87" y="-246.985">hosts (tablet mode)</text>
    <text font-size="12.7998" style="fill: #000000;text-anchor:start;font-family:monospace;font-style:normal;font-weight:normal" x="1457.61" y="-303.909">1</text>
    <text font-size="12.7998" style="fill: #000000;text-anchor:start;font-family:monospace;font-style:normal;font-weight:normal" x="1101.12" y="-79.3872">1</text>
  </g>
  <g>
    <polyline style="fill: none; fill-opacity:0; stroke-width: 2; stroke: #000000" points="735.436,-331.749 735.436,-207.017 1097.12,-207.017 1097.12,-71.114 "/>
    <polygon style="fill: #ffffff" points="735.436,-356.921 740.236,-342.921 735.436,-328.921 730.636,-342.921 "/>
    <polygon style="fill: none; fill-opacity:0; stroke-width: 2; stroke: #000000" points="735.436,-356.921 740.236,-342.921 735.436,-328.921 730.636,-342.921 "/>
    <text font-size="12.7998" style="fill: #000000;text-anchor:middle;font-family:monospace;font-style:normal;font-weight:normal" x="916.277" y="-212.099">hosts (narrow width mode)</text>
    <text font-size="12.7998" style="fill: #000000;text-anchor:start;font-family:monospace;font-style:normal;font-weight:normal" x="746.436" y="-349.202">1</text>
    <text font-size="12.7998" style="fill: #000000;text-anchor:start;font-family:monospace;font-style:normal;font-weight:normal" x="1101.12" y="-79.3953">1</text>
  </g>
  <g>
    <polyline style="fill: none; fill-opacity:0; stroke-width: 2; stroke: #000000" points="2411.01,-350.607 2411.01,-258.558 2442.38,-258.558 2442.38,-155.336 "/>
    <polygon style="fill: #000000" points="2411.01,-375.779 2415.81,-361.779 2411.01,-347.779 2406.21,-361.779 "/>
    <polygon style="fill: none; fill-opacity:0; stroke-width: 2; stroke: #000000" points="2411.01,-375.779 2415.81,-361.779 2411.01,-347.779 2406.21,-361.779 "/>
    <text font-size="12.7998" style="fill: #000000;text-anchor:middle;font-family:monospace;font-style:normal;font-weight:normal" x="2426.7" y="-263.639"/>
    <text font-size="12.7998" style="fill: #000000;text-anchor:start;font-family:monospace;font-style:normal;font-weight:normal" x="2422.01" y="-368.06"/>
    <text font-size="12.7998" style="fill: #000000;text-anchor:start;font-family:monospace;font-style:normal;font-weight:normal" x="2446.38" y="-163.617"/>
  </g>
  <g>
    <polyline style="fill: none; fill-opacity:0; stroke-width: 2; stroke: #000000" points="1714.79,-356.622 1909.94,-356.622 1909.94,-458.784 2116.25,-458.784 "/>
    <polygon style="fill: #000000" points="1689.62,-356.622 1703.62,-361.422 1717.62,-356.622 1703.62,-351.822 "/>
    <polygon style="fill: none; fill-opacity:0; stroke-width: 2; stroke: #000000" points="1689.62,-356.622 1703.62,-361.422 1717.62,-356.622 1703.62,-351.822 "/>
    <text font-size="12.7998" style="fill: #000000;text-anchor:start;font-family:monospace;font-style:normal;font-weight:normal" x="1911.94" y="-412.784"/>
    <text font-size="12.7998" style="fill: #000000;text-anchor:start;font-family:monospace;font-style:normal;font-weight:normal" x="1721.62" y="-361.703"/>
    <text font-size="12.7998" style="fill: #000000;text-anchor:end;font-family:monospace;font-style:normal;font-weight:normal" x="2112.25" y="-463.865"/>
  </g>
  <g>
    <polyline style="fill: none; fill-opacity:0; stroke-width: 2; stroke: #000000" points="2511,-599.458 2511,-571.742 2411.01,-571.742 2411.01,-541.789 "/>
    <polygon style="fill: #ffffff" points="2519.01,-599.458 2511,-615.458 2503,-599.458 "/>
    <polygon style="fill: none; fill-opacity:0; stroke-width: 2; stroke: #000000" points="2519.01,-599.458 2511,-615.458 2503,-599.458 "/>
  </g>
  <g>
    <polyline style="fill: none; fill-opacity:0; stroke-width: 2; stroke: #000000" points="1246.52,-111.058 1246.52,-92.2039 1097.12,-92.2039 1097.12,-71.114 "/>
    <polygon style="fill: #ffffff" points="1254.52,-111.058 1246.52,-127.058 1238.52,-111.058 "/>
    <polygon style="fill: none; fill-opacity:0; stroke-width: 2; stroke: #000000" points="1254.52,-111.058 1246.52,-127.058 1238.52,-111.058 "/>
  </g>
  <g>
    <polyline style="fill: none; fill-opacity:0; stroke-width: 2; stroke: #000000" points="859.236,404.126 585.198,404.126 585.198,-108.482 467.69,-108.482 467.69,-393.93 496.378,-393.93 "/>
    <text font-size="12.7998" style="fill: #000000;text-anchor:middle;font-family:monospace;font-style:normal;font-weight:normal" x="526.444" y="-113.563">transition</text>
    <text font-size="12.7998" style="fill: #000000;text-anchor:end;font-family:monospace;font-style:normal;font-weight:normal" x="855.236" y="399.045"/>
    <text font-size="12.7998" style="fill: #000000;text-anchor:end;font-family:monospace;font-style:normal;font-weight:normal" x="492.378" y="-399.011"/>
  </g>
  <g>
    <polyline style="fill: none; fill-opacity:0; stroke-width: 2; stroke: #000000" points="1337.31,404.126 1688.61,404.126 1688.61,-322.622 "/>
    <text font-size="12.7998" style="fill: #000000;text-anchor:middle;font-family:monospace;font-style:normal;font-weight:normal" x="1512.96" y="399.045">transition</text>
    <text font-size="12.7998" style="fill: #000000;text-anchor:start;font-family:monospace;font-style:normal;font-weight:normal" x="1341.31" y="399.045"/>
    <text font-size="12.7998" style="fill: #000000;text-anchor:start;font-family:monospace;font-style:normal;font-weight:normal" x="1692.61" y="-314.903"/>
  </g>
  <g>
    <polyline style="fill: none; fill-opacity:0; stroke-width: 2; stroke: #000000" points="1483.46,1301.63 1483.46,1279.95 1097.71,1279.95 1097.71,1258.27 "/>
    <text font-size="12.7998" style="fill: #000000;text-anchor:middle;font-family:monospace;font-style:normal;font-weight:normal" x="1290.58" y="1274.87">throws</text>
    <polygon style="fill: #000000" points="1263.48,1274.87 1263.48,1266.87 1255.48,1270.87 "/>
    <text font-size="12.7998" style="fill: #000000;text-anchor:start;font-family:monospace;font-style:normal;font-weight:normal" x="1487.46" y="1293.35"/>
    <text font-size="12.7998" style="fill: #000000;text-anchor:start;font-family:monospace;font-style:normal;font-weight:normal" x="1101.71" y="1265.98"/>
  </g>
  <g>
    <polyline style="fill: none; fill-opacity:0; stroke-width: 2; stroke: #000000" points="1098.26,599.122 1098.26,679.518 1312.34,679.518 1312.34,934.221 "/>
    <text font-size="12.7998" style="fill: #000000;text-anchor:middle;font-family:monospace;font-style:normal;font-weight:normal" x="1205.3" y="674.437">create/edit/delete rides in</text>
    <polygon style="fill: #000000" points="1311.25,674.437 1311.25,666.437 1319.25,670.437 "/>
    <text font-size="12.7998" style="fill: #000000;text-anchor:start;font-family:monospace;font-style:normal;font-weight:normal" x="1102.26" y="606.841"/>
    <text font-size="12.7998" style="fill: #000000;text-anchor:start;font-family:monospace;font-style:normal;font-weight:normal" x="1316.34" y="925.94"/>
  </g>
  <g>
    <polyline style="fill: none; fill-opacity:0; stroke-width: 2; stroke: #000000" points="1688.61,-312.622 1892.57,-312.622 1892.57,1001.23 1499.27,1001.23 "/>
    <text font-size="12.7998" style="fill: #000000;text-anchor:start;font-family:monospace;font-style:normal;font-weight:normal" x="1894.57" y="339.222">gets rides from</text>
    <polygon style="fill: #000000" points="2012.07,339.222 2012.07,331.222 2020.07,335.222 "/>
    <text font-size="12.7998" style="fill: #000000;text-anchor:start;font-family:monospace;font-style:normal;font-weight:normal" x="1692.61" y="-317.703"/>
    <text font-size="12.7998" style="fill: #000000;text-anchor:start;font-family:monospace;font-style:normal;font-weight:normal" x="1503.27" y="996.147"/>
  </g>
  <text font-size="12.8" style="fill: #000000;text-anchor:start;font-family:sans-serif;font-style:normal;font-weight:normal" x="1532.97" y="394.08">
    <tspan x="1532.97" y="394.08"></tspan>
  </text>
  <g>
    <polyline style="fill: none; fill-opacity:0; stroke-width: 2; stroke: #000000" points="1499.29,1001.23 1744.08,1001.23 1744.08,-12.1068 1336.14,-12.1068 "/>
    <text font-size="12.7998" style="fill: #000000;text-anchor:start;font-family:monospace;font-style:normal;font-weight:normal" x="1746.08" y="489.48">gets rides from</text>
    <polygon style="fill: #000000" points="1863.58,489.48 1863.58,481.48 1871.58,485.48 "/>
    <text font-size="12.7998" style="fill: #000000;text-anchor:start;font-family:monospace;font-style:normal;font-weight:normal" x="1503.29" y="996.147"/>
    <text font-size="12.7998" style="fill: #000000;text-anchor:start;font-family:monospace;font-style:normal;font-weight:normal" x="1340.14" y="-17.1879"/>
  </g>
  <g>
    <polyline style="fill: none; fill-opacity:0; stroke-width: 2; stroke: #000000" points="1312.34,1093.41 1312.34,1191.93 1483.46,1191.93 1483.46,1301.63 "/>
    <polygon style="fill: #ffffff" points="1312.34,1068.24 1317.14,1082.24 1312.34,1096.24 1307.54,1082.24 "/>
    <polygon style="fill: none; fill-opacity:0; stroke-width: 2; stroke: #000000" points="1312.34,1068.24 1317.14,1082.24 1312.34,1096.24 1307.54,1082.24 "/>
    <text font-size="12.7998" style="fill: #000000;text-anchor:middle;font-family:monospace;font-style:normal;font-weight:normal" x="1397.9" y="1186.85">stores</text>
    <text font-size="12.7998" style="fill: #000000;text-anchor:start;font-family:monospace;font-style:normal;font-weight:normal" x="1323.34" y="1075.95">1</text>
    <text font-size="12.7998" style="fill: #000000;text-anchor:start;font-family:monospace;font-style:normal;font-weight:normal" x="1487.46" y="1293.35">0..*</text>
  </g>
  <g>
    <polyline style="fill: none; fill-opacity:0; stroke-width: 2; stroke: #000000" points="858.066,-12.1068 634.992,-12.1068 634.992,1754.63 1262.86,1754.63 "/>
    <text font-size="12.7998" style="fill: #000000;text-anchor:start;font-family:monospace;font-style:normal;font-weight:normal" x="636.992" y="866.183">displays</text>
    <polygon style="fill: #000000" points="700.592,866.183 700.592,858.183 708.592,862.183 "/>
    <text font-size="12.7998" style="fill: #000000;text-anchor:end;font-family:monospace;font-style:normal;font-weight:normal" x="854.066" y="-17.1878">1</text>
    <text font-size="12.7998" style="fill: #000000;text-anchor:end;font-family:monospace;font-style:normal;font-weight:normal" x="1258.86" y="1749.55">1</text>
  </g>
  <g>
    <polyline style="fill: none; fill-opacity:0; stroke-width: 2; stroke: #000000" points="1688.61,-312.622 2050.6,-312.622 2050.6,1528.63 1705.03,1528.63 "/>
    <text font-size="12.7998" style="fill: #000000;text-anchor:start;font-family:monospace;font-style:normal;font-weight:normal" x="2052.6" y="602.925">displays</text>
    <polygon style="fill: #000000" points="2116.2,602.925 2116.2,594.925 2124.2,598.925 "/>
    <text font-size="12.7998" style="fill: #000000;text-anchor:start;font-family:monospace;font-style:normal;font-weight:normal" x="1692.61" y="-317.703">1</text>
    <text font-size="12.7998" style="fill: #000000;text-anchor:start;font-family:monospace;font-style:normal;font-weight:normal" x="1709.03" y="1523.55">0..*</text>
  </g>
  <g>
    <polygon style="fill: #ffffff" points="1538.67,1227.23 1945.07,1227.23 1957.07,1239.23 1957.07,1277.23 1538.67,1277.23 "/>
    <polygon style="fill: none; fill-opacity:0; stroke-width: 2; stroke: #000000" points="1538.67,1227.23 1945.07,1227.23 1957.07,1239.23 1957.07,1277.23 1538.67,1277.23 "/>
    <polyline style="fill: none; fill-opacity:0; stroke-width: 1; stroke: #000000" points="1945.07,1227.23 1945.07,1239.23 1957.07,1239.23 "/>
    <text font-size="12.8" style="fill: #000000;text-anchor:start;font-family:monospace;font-style:normal;font-weight:normal" x="1545.67" y="1247.95">
      <tspan x="1545.67" y="1247.95">stores each ride's details and has helper function s</tspan>
      <tspan x="1545.67" y="1263.95">for displaying details in the correct format</tspan>
    </text>
  </g>
  <g>
    <polygon style="fill: #ffffff" points="1376.83,836.81 1644.63,836.81 1656.63,848.81 1656.63,902.81 1376.83,902.81 "/>
    <polygon style="fill: none; fill-opacity:0; stroke-width: 2; stroke: #000000" points="1376.83,836.81 1644.63,836.81 1656.63,848.81 1656.63,902.81 1376.83,902.81 "/>
    <polyline style="fill: none; fill-opacity:0; stroke-width: 1; stroke: #000000" points="1644.63,836.81 1644.63,848.81 1656.63,848.81 "/>
    <text font-size="12.8" style="fill: #000000;text-anchor:start;font-family:monospace;font-style:normal;font-weight:normal" x="1383.83" y="857.528">
      <tspan x="1383.83" y="857.528">stores all of the rides in the app</tspan>
      <tspan x="1383.83" y="873.528">is essentially a non persistent</tspan>
      <tspan x="1383.83" y="889.528">global state</tspan>
    </text>
  </g>
  <g>
    <polyline style="fill: none; fill-opacity:0; stroke-width: 2; stroke: #000000" points="859.55,440.018 737.196,458.414 737.196,1528.63 1261.85,1528.63 "/>
    <text font-size="12.7998" style="fill: #000000;text-anchor:start;font-family:monospace;font-style:normal;font-weight:normal" x="739.196" y="988.443">create/edit/delete</text>
    <polygon style="fill: #000000" points="879.796,988.443 879.796,980.443 887.796,984.443 "/>
    <text font-size="12.7998" style="fill: #000000;text-anchor:end;font-family:monospace;font-style:normal;font-weight:normal" x="855.55" y="434.937">1</text>
    <text font-size="12.7998" style="fill: #000000;text-anchor:end;font-family:monospace;font-style:normal;font-weight:normal" x="1257.85" y="1523.55">1</text>
  </g>
  <g>
    <polygon style="fill: #ffffff" points="2756.04,-518 3139.34,-518 3151.34,-506 3151.34,-452 2756.04,-452 "/>
    <polygon style="fill: none; fill-opacity:0; stroke-width: 2; stroke: #000000" points="2756.04,-518 3139.34,-518 3151.34,-506 3151.34,-452 2756.04,-452 "/>
    <polyline style="fill: none; fill-opacity:0; stroke-width: 1; stroke: #000000" points="3139.34,-518 3139.34,-506 3151.34,-506 "/>
    <text font-size="12.8" style="fill: #000000;text-anchor:start;font-family:monospace;font-style:normal;font-weight:normal" x="2763.04" y="-497.282">
      <tspan x="2763.04" y="-497.282">generated by the master detail flow template.</tspan>
      <tspan x="2763.04" y="-481.282">Some modifications were made so it can "adapt" the</tspan>
      <tspan x="2763.04" y="-465.282">Ride items to the RecyclerView</tspan>
    </text>
  </g>
  <g>
    <polygon style="fill: #ffffff" points="1496.69,-488.75 1826.09,-488.75 1838.09,-476.75 1838.09,-438.75 1496.69,-438.75 "/>
    <polygon style="fill: none; fill-opacity:0; stroke-width: 2; stroke: #000000" points="1496.69,-488.75 1826.09,-488.75 1838.09,-476.75 1838.09,-438.75 1496.69,-438.75 "/>
    <polyline style="fill: none; fill-opacity:0; stroke-width: 1; stroke: #000000" points="1826.09,-488.75 1826.09,-476.75 1838.09,-476.75 "/>
    <text font-size="12.8" style="fill: #000000;text-anchor:start;font-family:monospace;font-style:normal;font-weight:normal" x="1503.69" y="-468.032">
      <tspan x="1503.69" y="-468.032">this is the first screen the user sees when</tspan>
      <tspan x="1503.69" y="-452.032">the app is opened. Shows a list of rides.</tspan>
    </text>
  </g>
  <line style="fill: none; fill-opacity:0; stroke-width: 2; stroke: #000000" x1="1613.8" y1="-437.746" x2="1539.35" y2="-401.62"/>
  <line style="fill: none; fill-opacity:0; stroke-width: 2; stroke: #000000" x1="2755.05" y1="-475.404" x2="2705.75" y2="-473.022"/>
  <line style="fill: none; fill-opacity:0; stroke-width: 2; stroke: #000000" x1="1128.04" y1="209.13" x2="1132.87" y2="177.509"/>
  <line style="fill: none; fill-opacity:0; stroke-width: 2; stroke: #000000" x1="1463.94" y1="903.755" x2="1416.54" y2="934.228"/>
  <line style="fill: none; fill-opacity:0; stroke-width: 2; stroke: #000000" x1="1723" y1="1278.23" x2="1700.48" y2="1301.76"/>
  <g>
    <polygon style="fill: #ffffff" points="1365.69,-113.75 1579.59,-113.75 1591.59,-101.75 1591.59,-79.75 1365.69,-79.75 "/>
    <polygon style="fill: none; fill-opacity:0; stroke-width: 2; stroke: #000000" points="1365.69,-113.75 1579.59,-113.75 1591.59,-101.75 1591.59,-79.75 1365.69,-79.75 "/>
    <polyline style="fill: none; fill-opacity:0; stroke-width: 1; stroke: #000000" points="1579.59,-113.75 1579.59,-101.75 1591.59,-101.75 "/>
    <text font-size="12.8" style="fill: #000000;text-anchor:start;font-family:monospace;font-style:normal;font-weight:normal" x="1372.69" y="-93.0316">
      <tspan x="1372.69" y="-93.0316">shows the details of a ride</tspan>
    </text>
  </g>
  <line style="fill: none; fill-opacity:0; stroke-width: 2; stroke: #000000" x1="1397.79" y1="-78.8129" x2="1336.15" y2="-65.138"/>
  <line style="fill: none; fill-opacity:0; stroke-width: 2; stroke: #000000" x1="933.593" y1="1070.44" x2="890.034" y2="1105.25"/>
</svg>
